<?xml version="1.0" standalone="no"?>
<!DOCTYPE svg PUBLIC "-//W3C//DTD SVG 20010904//EN"
 "http://www.w3.org/TR/2001/REC-SVG-20010904/DTD/svg10.dtd">
<svg version="1.0" xmlns="http://www.w3.org/2000/svg"
 width="640.000000pt" height="640.000000pt" viewBox="0 0 640.000000 640.000000"
 preserveAspectRatio="xMidYMid meet">
<metadata>
Created by potrace 1.16, written by Peter Selinger 2001-2019
</metadata>
<g transform="translate(0.000000,640.000000) scale(0.100000,-0.100000)"
fill="#000000" stroke="none">
<path d="M0 3200 l0 -3200 3200 0 3200 0 0 3200 0 3200 -3200 0 -3200 0 0
-3200z m3370 2445 c74 -43 162 -94 195 -113 33 -19 115 -66 183 -104 67 -39
122 -74 122 -79 0 -5 0 -190 0 -411 l0 -401 -37 -22 c-21 -12 -162 -93 -313
-180 -151 -87 -304 -175 -340 -195 -36 -20 -97 -56 -137 -78 -39 -23 -87 -50
-105 -61 -18 -10 -60 -34 -93 -53 -185 -107 -364 -208 -369 -208 -3 0 -6 363
-6 808 0 758 1 808 18 818 9 6 42 25 72 41 58 32 140 80 238 137 31 18 129 74
216 124 l160 91 30 -18 c17 -10 92 -54 166 -96z m-1270 -106 c36 -25 109 -76
163 -113 l97 -67 0 -845 0 -844 -22 -13 c-13 -8 -88 -51 -168 -97 -80 -45
-156 -90 -170 -99 -14 -10 -33 -20 -42 -24 -17 -6 -18 51 -18 1104 l0 1111 48
-35 c26 -18 76 -54 112 -78z m2302 -291 c3 -448 11 -407 -89 -458 -26 -13 -64
-34 -83 -46 -110 -67 -229 -134 -239 -134 -13 0 -16 737 -3 756 8 13 392 272
404 273 4 1 9 -176 10 -391z m-4 -1580 l-3 -1012 -115 -66 c-63 -37 -218 -126
-345 -199 -463 -268 -730 -422 -755 -436 -6 -4 -57 21 -135 67 -73 43 -190
110 -242 139 -21 12 -126 72 -233 134 -107 62 -292 169 -410 237 l-215 124 -3
311 -2 311 97 54 c54 30 147 83 207 116 60 34 111 62 113 62 2 0 3 -141 3
-313 l0 -312 138 -79 c75 -44 162 -94 192 -112 174 -103 473 -274 480 -274 7
0 108 57 455 258 33 19 76 43 95 54 19 11 86 50 148 86 l112 65 0 777 c0 727
1 778 18 792 15 14 87 57 207 123 22 13 71 41 110 64 38 22 73 41 77 41 5 0 7
-455 6 -1012z m-522 696 c-3 -9 -6 -329 -6 -712 l-1 -697 -252 -144 c-139 -79
-294 -168 -345 -198 -108 -64 -84 -66 -248 28 -60 34 -138 79 -174 99 -36 20
-88 50 -116 66 -27 16 -98 56 -157 89 l-106 60 -1 311 0 312 175 101 c96 56
177 101 180 101 3 0 5 -144 5 -319 l0 -319 168 -96 c93 -53 171 -96 174 -96 6
0 45 22 191 106 34 20 80 47 102 59 l40 23 3 515 c2 474 4 515 20 529 9 8 82
52 162 97 80 46 149 87 155 92 16 15 38 11 31 -7z m-2356 -2619 c0 -38 -4 -40
-72 -36 -68 4 -78 -4 -78 -65 l0 -54 54 0 c50 0 54 -2 59 -27 8 -45 -1 -53
-59 -53 l-54 0 0 -54 c0 -61 6 -66 71 -60 65 6 79 -2 79 -42 l0 -34 -115 0
-115 0 0 230 0 230 115 0 115 0 0 -35z m805 -5 c63 -61 71 -148 19 -210 -36
-43 -60 -54 -129 -60 l-60 -5 -3 -72 -3 -73 -39 0 -40 0 0 231 0 231 109 -4
110 -3 36 -35z m707 8 c42 -60 111 -143 120 -143 4 0 38 38 76 85 64 80 70 85
110 88 l42 3 0 -230 0 -231 -40 0 -40 0 0 155 c0 97 -4 155 -10 155 -6 0 -29
-27 -53 -60 -40 -56 -44 -59 -84 -60 -40 0 -44 3 -89 65 -26 36 -50 62 -53 59
-3 -3 -6 -74 -6 -157 l0 -152 -42 -3 -43 -3 0 230 0 231 44 0 c39 0 48 -4 68
-32z m1192 21 c23 -6 57 -29 86 -58 92 -92 93 -227 2 -321 -88 -90 -222 -95
-314 -12 -99 89 -105 233 -15 329 63 66 148 88 241 62z m984 -26 l-3 -38 -56
-1 c-99 -1 -163 -64 -161 -161 1 -86 61 -141 157 -145 l60 -3 3 -37 3 -38 -58
0 c-32 0 -74 4 -93 10 -84 23 -160 128 -160 220 0 89 76 196 155 219 17 5 58
10 93 10 l63 1 -3 -37z m-2998 -786 c0 -127 -10 -148 -73 -146 l-42 1 38 8
c48 9 56 18 64 65 l6 37 -26 -17 c-36 -23 -72 -13 -92 26 -33 63 12 129 86
129 l39 0 0 -103z m1799 21 c0 -46 -3 -77 -6 -71 -3 9 -11 9 -29 -3 -33 -22
-70 -11 -90 27 -31 61 14 129 86 129 l40 0 -1 -82z m350 0 c0 -46 -3 -77 -6
-71 -4 10 -10 10 -26 -2 -12 -8 -29 -15 -39 -15 -30 0 -58 40 -58 82 0 54 35
88 90 88 l40 0 -1 -82z m171 -21 c0 -74 -4 -108 -15 -124 -16 -23 -52 -33 -81
-22 -15 6 -13 8 12 8 43 1 63 20 71 65 l6 38 -32 -16 c-40 -21 -67 -13 -87 25
-32 63 13 129 87 129 l39 0 0 -103z"/>
<path d="M3025 5254 c-83 -47 -160 -92 -172 -100 l-23 -14 0 -405 c0 -223 2
-405 5 -405 6 0 134 72 240 135 39 22 152 88 253 145 l182 104 0 216 0 215
-122 70 c-68 38 -132 75 -143 81 -11 5 -31 18 -45 27 -26 16 -28 15 -175 -69z"/>
<path d="M2158 1704 c-5 -4 -8 -40 -8 -81 l0 -73 50 0 c61 0 90 24 90 74 0 48
-26 75 -80 82 -25 3 -48 2 -52 -2z"/>
<path d="M4105 1695 c-98 -34 -135 -151 -74 -236 57 -80 171 -82 231 -3 38 51
45 104 19 157 -36 72 -107 106 -176 82z"/>
</g>
</svg>
