<?xml version="1.0" standalone="no"?>
<!DOCTYPE svg PUBLIC "-//W3C//DTD SVG 20010904//EN"
 "http://www.w3.org/TR/2001/REC-SVG-20010904/DTD/svg10.dtd">
<svg version="1.0" xmlns="http://www.w3.org/2000/svg"
 width="1080.000000pt" height="753.000000pt" viewBox="0 0 1080.000000 753.000000"
 preserveAspectRatio="xMidYMid meet">
<metadata>
Created by potrace 1.16, written by Peter Selinger 2001-2019
</metadata>
<g transform="translate(0.000000,753.000000) scale(0.100000,-0.100000)"
fill="#000000" stroke="none">
<path d="M0 3765 l0 -3765 5400 0 5400 0 0 3765 0 3765 -5400 0 -5400 0 0
-3765z m5453 2854 c178 -100 222 -125 262 -151 22 -14 74 -43 115 -65 41 -22
91 -50 110 -62 19 -13 80 -49 135 -80 166 -95 316 -182 387 -223 43 -25 70
-47 73 -61 3 -12 4 -323 3 -692 l-3 -669 -81 -46 c-45 -25 -163 -92 -262 -150
-100 -58 -214 -123 -254 -146 -40 -22 -129 -74 -198 -114 -69 -40 -159 -92
-200 -114 -41 -23 -94 -54 -117 -69 -24 -15 -45 -27 -47 -27 -3 0 -73 -39
-155 -87 -83 -49 -188 -108 -233 -133 -46 -25 -102 -57 -125 -72 -24 -16 -45
-28 -48 -28 -3 0 -38 -20 -78 -44 -39 -23 -126 -74 -192 -111 -127 -72 -142
-80 -273 -157 -46 -26 -90 -48 -98 -48 -12 0 -14 189 -12 1362 l3 1362 78 45
c42 25 125 73 182 106 109 62 261 149 375 215 36 20 101 59 145 85 44 26 103
60 130 75 28 14 73 40 100 57 80 50 159 92 173 92 7 1 55 -22 105 -50z m1977
-812 l0 -672 -104 -63 c-57 -34 -107 -62 -111 -62 -4 0 -50 -26 -103 -58 -53
-32 -131 -78 -172 -102 -41 -23 -97 -56 -124 -72 -26 -16 -58 -30 -70 -31
l-21 -2 -3 628 c-2 492 1 632 10 646 7 10 67 54 133 98 66 43 138 91 160 105
22 15 108 72 190 127 83 55 161 109 175 119 14 11 28 18 33 15 4 -2 7 -307 7
-676z m-4042 607 c53 -37 106 -74 117 -84 11 -9 27 -19 35 -22 9 -3 45 -28 81
-54 36 -27 72 -53 82 -59 40 -24 234 -160 255 -178 l22 -20 0 -1417 0 -1417
-22 -21 c-13 -11 -48 -34 -78 -50 -30 -15 -90 -50 -132 -75 -42 -26 -80 -47
-83 -47 -4 0 -47 -25 -96 -55 -49 -30 -92 -55 -96 -55 -5 0 -28 -14 -53 -31
-63 -42 -136 -79 -144 -72 -11 11 -7 3723 4 3723 6 0 55 -30 108 -66z m4040
-3256 l2 -1696 -37 -30 c-21 -16 -63 -43 -93 -59 -30 -16 -116 -65 -190 -108
-74 -43 -164 -95 -200 -115 -36 -20 -83 -48 -105 -62 -22 -14 -65 -39 -95 -55
-90 -48 -221 -124 -286 -165 -33 -21 -63 -38 -67 -38 -3 0 -48 -25 -99 -56
-50 -31 -103 -60 -116 -65 -13 -5 -42 -22 -65 -38 -23 -15 -71 -44 -107 -63
-36 -20 -87 -49 -115 -65 -27 -17 -95 -56 -150 -88 -55 -32 -136 -79 -180
-105 -44 -27 -101 -58 -128 -71 l-47 -23 -63 32 c-34 18 -107 59 -162 92 -55
33 -138 81 -185 106 -47 26 -108 63 -137 81 -29 18 -54 33 -57 33 -2 0 -49 26
-103 57 -117 68 -131 76 -243 140 -47 26 -93 52 -102 58 -76 46 -242 144 -283
166 -27 15 -104 58 -170 96 -66 39 -196 114 -290 168 -93 53 -196 113 -227
132 l-58 34 0 513 c0 577 -8 521 80 568 38 21 174 97 325 183 22 13 96 55 164
94 68 38 128 68 133 65 4 -3 8 -239 8 -525 l0 -520 43 -25 c80 -48 162 -96
212 -123 98 -54 221 -125 260 -150 22 -14 69 -41 105 -61 79 -44 422 -242 580
-335 140 -82 163 -95 173 -95 4 0 74 39 155 86 81 48 167 98 192 112 25 13 88
49 140 80 52 30 138 80 190 110 52 30 123 72 158 93 35 22 66 39 69 39 3 0 42
22 87 49 45 26 101 59 126 73 95 53 226 130 238 140 9 8 12 285 12 1323 0
1204 1 1314 16 1326 18 15 82 53 159 95 28 14 91 50 140 79 50 29 137 79 195
112 58 33 121 69 140 81 19 11 40 19 45 18 7 -2 11 -578 13 -1698z m-888 -2
l0 -1194 -30 -25 c-16 -14 -40 -29 -52 -33 -13 -4 -59 -29 -103 -57 -44 -27
-89 -53 -100 -57 -11 -4 -57 -30 -102 -56 -45 -27 -129 -75 -185 -108 -57 -32
-128 -73 -158 -91 -30 -18 -86 -50 -125 -70 -38 -21 -89 -51 -112 -66 -23 -16
-52 -33 -65 -38 -13 -5 -50 -25 -83 -45 -33 -20 -66 -36 -74 -36 -8 0 -44 17
-80 39 -156 91 -218 127 -251 144 -19 10 -64 36 -100 56 -36 21 -114 66 -175
101 -162 93 -283 163 -387 224 -51 29 -111 63 -134 74 -22 11 -46 27 -52 35
-9 11 -12 142 -10 528 l3 513 85 50 c47 27 128 74 180 104 52 30 123 72 157
93 34 22 65 39 67 39 3 0 28 14 57 30 28 17 54 28 58 25 7 -8 8 -29 10 -611
l1 -470 68 -36 c37 -19 128 -70 202 -113 238 -138 288 -165 303 -165 9 0 37
13 64 29 26 16 72 42 101 57 126 69 350 199 380 221 l32 24 0 868 0 869 108
63 c59 35 130 76 158 90 28 15 76 43 107 63 31 20 60 36 64 36 4 0 39 21 77
45 38 25 75 45 83 45 11 0 13 -204 13 -1194z"/>
<path d="M5290 5934 c-25 -14 -67 -39 -95 -54 -27 -15 -106 -60 -175 -100 -69
-40 -145 -84 -170 -97 -25 -14 -51 -31 -57 -37 -10 -9 -13 -168 -14 -691 -1
-579 1 -680 13 -683 8 -1 41 15 73 36 33 21 78 47 100 59 44 22 42 21 258 147
82 47 151 86 153 86 3 0 33 17 67 38 56 35 152 91 352 205 39 22 85 51 103 64
l32 24 0 348 c0 319 -1 349 -17 363 -23 18 -143 91 -253 152 -128 72 -170 95
-232 132 -67 41 -80 41 -138 8z"/>
</g>
</svg>
